<?xml version="1.0" encoding="utf-8"?>
<!-- Generator: Adobe Illustrator 21.1.0, SVG Export Plug-In . SVG Version: 6.00 Build 0)  -->
<svg version="1.1" id="Capa_1" xmlns="http://www.w3.org/2000/svg" xmlns:xlink="http://www.w3.org/1999/xlink" x="0px" y="0px"
	 viewBox="0 0 451 451" style="enable-background:new 0 0 451 451;" xml:space="preserve">
<style type="text/css">
	.st0{fill:#FFFFFF;}
</style>
<g>
	<path class="st0" d="M357.4,272.3l-31.8-2.1l17.9-26.3c3-4.4,3.1-9.7,0.2-11.6l-1.4-0.8c-2.9-2-7.7,0-10.7,4.4l-17.9,26.4
		l-14.1-28.7c-2.4-4.7-6.9-7.4-10.1-5.9l-1.4,0.7c-3.2,1.6-3.8,6.8-1.5,11.6l14,28.6l-31.7-2.1c-5.3-0.3-9.9,2.2-10.1,5.7l-0.1,1.6
		c-0.2,3.5,3.9,6.7,9.2,7l31.7,2.1l-17.7,26.2c-3,4.4-3.1,9.7-0.2,11.6l1.3,0.9c2.9,2,7.7,0,10.7-4.5l17.9-26.4l14.1,28.6
		c2.5,4.8,6.9,7.4,10.1,6l1.5-0.7c3.1-1.5,3.8-6.7,1.4-11.5l-14-28.5l31.7,2.1c5.4,0.3,9.9-2.2,10.1-5.7l0.2-1.6
		C367,275.8,362.8,272.7,357.4,272.3z"/>
	<path class="st0" d="M324,137.9c-0.1,18.2,31.2,26.6,60.4,26.7c25,0.2,46.2-5.3,55.4-14.4c4.3-4.3,5.3-8.7,5.3-11.5
		c0-2.9-0.8-7.3-5.2-11.6c-9-9.2-30.2-14.9-55.2-15.1C355.6,111.8,324.2,119.9,324,137.9z M384.7,126.9c29,0.2,44.3,8.4,45.4,11.7
		c-1.1,3.2-16.4,11.3-45.5,11.1s-44.3-8.4-45.4-11.7C340.3,134.8,355.6,126.7,384.7,126.9z"/>
	<path class="st0" d="M416.4,235.6l-0.4-0.2l-102.4-69.9l-0.4-0.2c-18.2-9.6-33.4-8.2-45.5,4.1c0.4-11.3-0.9-21.9-4.1-31.9
		c-6.5-20.7-19.5-49.4-44.3-67.8c-24.8-18.5-43.7-26.9-69.7-31.1c-9.7-1.6-16.9,0.5-19.8,5.6c-1,1.6-1.5,3.6-1.5,6
		c0,4.9,2.3,11.5,7.3,21.2c3.6,7,10.9,17.3,18.9,26.1c-2.3-0.1-4.5-0.1-6.2,0.2c-4.3,0.7-10.4,2.5-12.7,8.1
		c-0.4,1.1-0.7,2.5-0.7,4.1c0,5.3,2.5,12.8,8.3,19.9c3.7,4.5,8.1,8.8,12.8,12.6c-6.6,2-14.6,6.6-18.2,8.8c-16.7-3.8-35.9-5.2-55-0.4
		c-30,7.6-48.4,16.9-68.1,34.5c-7.3,6.5-10.3,13.4-8.2,18.9c0.7,1.9,1.9,3.4,3.7,4.9c3.8,3.1,10.4,5.5,21,7.8
		c7.7,1.6,20.3,2.5,32.1,1.7c-1.6,1.7-2.9,3.4-3.8,4.9c-2.2,3.9-4.7,9.7-1.7,15c0.6,1,1.6,2,2.8,3.1c4.1,3.4,11.5,6.1,20.7,6.1
		c5.8-0.1,11.9-0.7,17.8-2c-2.3,5.7-2.7,12.1-2.4,18.8c0.2,4.6,1.6,14.3,1.6,14.3s12.7-1.1,32.4-15.1c0,5.9,3.3,18.4,3.4,18.7
		l2.9,9.1l8.2-5c1.4-0.8,12.3-7.7,17.9-16.8c1.4,1.1,2.9,2,4.4,2.9c9.2,5.4,20.3,5.1,29.3,2.5c-6.5,14.7-3.4,26.9,9.3,38.7
		l-33.9,2.7c-4.1,0.3-7.1,3.9-6.9,8l3.3,44c0.3,4.1,3.9,7.2,8,6.9c3.9-0.3,7-3.5,7-7.4c0-0.2,0-0.3,0-0.5c0,0-2-26.4-2.7-36.6
		c10.7-0.9,42.8-3.4,42.8-3.4c0.2,0,0.6-0.2,0.8-0.2c4.4,3,9.7,6.6,15.5,10.6L215.1,367c-2.1,2.5-2.5,6-0.7,8.8l20.3,33.5
		c2.1,3.5,6.7,4.7,10.2,2.5c2.3-1.4,3.6-3.8,3.6-6.4c0-1.3-0.4-2.7-1.1-3.9c0,0-13.3-22-17.5-28.9c4-4.7,16.3-19,22.6-26.4
		c27.7,18.9,59.4,40.5,59.4,40.5l0.3,0.2l0.4,0.2c23,12.1,35.1,9.9,51.8-9.3l0.3-0.3l60.7-90C438.1,267.2,435,250.3,416.4,235.6z
		 M168.3,149.7c9.8-2.3,21.4,0.2,21.4,0.2c-3.3-3.1-9.8-7.4-15.2-9.3c-3.8-1.5-14.8-9.6-21.9-21.1c-2.1-3.5-2.2-5.8-1.7-7.1
		c0.5-1.3,12-5.3,32.7,4c11.5,5.2,24.5,1.7,24.5,1.7s-11.6-2.5-28.1-14.3c-9-6.5-25.6-28.1-31.2-39c-2.9-5.6-4.3-9.2-4.9-11.5
		c0.9,0,2,0.2,3.4,0.3c23.3,3.8,40.5,11.5,63.1,28.3c21.5,16,33,41.6,38.9,60.3c2.7,8.7,3.4,16.7,3.4,23.1c0.1,10.2-3,24-5.3,32.7
		c-7.4,11.1-16.7,25.1-24.8,37.2c-0.1-2.1-0.3-4.3-0.7-6.5c-2.6-15.3-14-32.6-14.5-33.4c0,0-3.2-4.1-8.5-10.7l13.4-6.7
		c-4.3-0.7-13.6-1.2-20.9-1.4c-7.8-6.8-18.5-13.4-28-17.2c-2.7-1.1-5.6-2.2-8.6-3.2C158.2,153.7,162.7,151.1,168.3,149.7z
		 M106.6,262.4l0.5-0.1c-0.1,0-0.1,0.1-0.2,0.1C106.8,262.4,106.7,262.4,106.6,262.4z M175.2,259.4c-8.1-4.7-11.8-11.5-10.7-19.9
		c0.4-3.3,3.9-12.5,14.6-11.6c2.3,0.2,3.9,1.3,5.3,2.6c6.5,6.1-4.8,19.6-4.8,19.6c1-0.5,19.3-2.4,20.8-13.8
		c0.7-5.3-0.9-10.9-4.3-15.1c-3.8-4.7-9.3-7.5-15.7-8.1c-18.9-1.6-29.3,13.4-30.7,24.6c-1.1,8.9,0.9,17,5.7,23.7
		c0,0-8.9,8.5-11.2,10.7c-0.1-0.7-2.8-8.4-2.9-13.2c-0.6-13.2,3.5-21,3.5-21s-4.4,1.3-7.6,2.9c-4,2.1-8.7,6.3-16.4,13.3
		c-2.3,2-9.2,7-11.6,7.1c0.1-2.6,0.2-12.3,4.6-21.4c4.4-9,14.1-17.8,14.1-17.8c-4.6,1.3-11.6,4.6-19.1,7.3
		c-9.3,3.4-17.6,5.6-29.2,4.3c-4.1-0.5-5.9-1.9-6.5-3.1c-0.7-1.2,3.4-12.6,23.7-22.9c11.3-5.7,16.8-18.1,16.8-18.1
		s-9.2,7.4-28.8,12.8c-10.6,2.9-37.9,2.1-50-0.5c-6.2-1.3-9.9-2.5-11.9-3.4c0.6-0.7,1.3-1.6,2.3-2.4c17.7-15.8,34.4-24.2,61.8-31.2
		c26-6.5,53.1,0.7,71.3,7.9c8.4,3.4,15,8,20,11.9c7.8,6,26,25.3,29.1,46.2c0.4,2.4,0.7,4.7,0.7,6.9c0,7.6-2.5,14.1-7.6,19.4
		C198.1,259.4,184.3,264.8,175.2,259.4z M413,279.1c0.2-0.2-56.9,84.4-60,89c-11.3,12.9-15.5,14.9-33,5.7
		c-0.9-0.6-99.5-67.7-99.5-67.7c-7.9-6.1-11.8-11.1-11.8-17c0-5.1,2.8-10.7,8.3-18.3c0.2-0.2,56.4-84.5,56.4-84.5
		c8.7-13.5,17.9-15.7,32.7-7.9c1,0.7,100.5,68.6,101.2,69.1c7.4,5.9,11,11.1,11,17.2C418.3,269,416.5,273.6,413,279.1z"/>
</g>
</svg>
